<svg class="border shadow-md" viewBox="0 0 756.8 756.8" style="width: 756.8px; height: 756.8px;" xmlns="http://www.w3.org/2000/svg" preserveAspectRatio="none"><rect class="bg" id="bg" x="0" y="0" width="756.8" height="756.8" fill="#ffffff"/><path d="M 0 -68.8 L 0 -68.80&#xA;                L 102.00 -3.80&#xA;                L 151.35999999999999 -68.80 L 151.35999999999999 -68.80&#xA;                L 201.81 -34.40&#xA;                L 302.71999999999997 -68.80 L 302.71999999999997 -68.80&#xA;                L 353.17 -34.40&#xA;                L 454.0799999999999 -68.80 L 454.0799999999999 -68.80&#xA;                L 539.08 -34.40&#xA;                L 605.4399999999999 -68.80 L 605.4399999999999 -68.80&#xA;                L 655.89 -34.40&#xA;                L 756.8 -68.80 L 756.8 -68.80&#xA;                L 807.25 -32.80&#xA;                L 908.16 -68.80  V 756.80 H 0 V -68.80 Z" fill="#59B462"/><path d="M 0 0 L 0 0.00&#xA;                L 50.45 34.40&#xA;                L 151.35999999999999 0.00 L 151.35999999999999 0.00&#xA;                L 203.36 49.00&#xA;                L 302.71999999999997 0.00 L 302.71999999999997 0.00&#xA;                L 386.72 34.40&#xA;                L 454.0799999999999 0.00 L 454.0799999999999 0.00&#xA;                L 507.08 48.00&#xA;                L 605.4399999999999 0.00 L 605.4399999999999 0.00&#xA;                L 655.89 34.40&#xA;                L 756.8 0.00 L 756.8 0.00&#xA;                L 854.80 34.40&#xA;                L 908.16 0.00  V 756.80 H 0 V 0.00 Z" fill="#52a65c"/><path d="M 0 68.8 L 0 68.80&#xA;                L 50.45 116.80&#xA;                L 151.35999999999999 68.80 L 151.35999999999999 68.80&#xA;                L 249.36 119.80&#xA;                L 302.71999999999997 68.80 L 302.71999999999997 68.80&#xA;                L 398.72 103.20&#xA;                L 454.0799999999999 68.80 L 454.0799999999999 68.80&#xA;                L 504.53 110.80&#xA;                L 605.4399999999999 68.80 L 605.4399999999999 68.80&#xA;                L 663.44 103.20&#xA;                L 756.8 68.80 L 756.8 68.80&#xA;                L 840.80 109.80&#xA;                L 908.16 68.80  V 756.80 H 0 V 68.80 Z" fill="#4b9856"/><path d="M 0 137.6 L 0 137.60&#xA;                L 50.45 187.60&#xA;                L 151.35999999999999 137.60 L 151.35999999999999 137.60&#xA;                L 201.81 200.60&#xA;                L 302.71999999999997 137.60 L 302.71999999999997 137.60&#xA;                L 361.72 172.00&#xA;                L 454.0799999999999 137.60 L 454.0799999999999 137.60&#xA;                L 554.08 188.60&#xA;                L 605.4399999999999 137.60 L 605.4399999999999 137.60&#xA;                L 670.44 172.00&#xA;                L 756.8 137.60 L 756.8 137.60&#xA;                L 807.25 199.60&#xA;                L 908.16 137.60  V 756.80 H 0 V 137.60 Z" fill="#448a50"/><path d="M 0 206.39999999999998 L 0 206.40&#xA;                L 50.45 240.80&#xA;                L 151.35999999999999 206.40 L 151.35999999999999 206.40&#xA;                L 217.36 240.80&#xA;                L 302.71999999999997 206.40 L 302.71999999999997 206.40&#xA;                L 353.17 249.40&#xA;                L 454.0799999999999 206.40 L 454.0799999999999 206.40&#xA;                L 504.53 254.40&#xA;                L 605.4399999999999 206.40 L 605.4399999999999 206.40&#xA;                L 655.89 240.80&#xA;                L 756.8 206.40 L 756.8 206.40&#xA;                L 807.25 240.80&#xA;                L 908.16 206.40  V 756.80 H 0 V 206.40 Z" fill="#3d7c4a"/><path d="M 0 275.2 L 0 275.20&#xA;                L 50.45 314.20&#xA;                L 151.35999999999999 275.20 L 151.35999999999999 275.20&#xA;                L 201.81 309.60&#xA;                L 302.71999999999997 275.20 L 302.71999999999997 275.20&#xA;                L 408.72 309.60&#xA;                L 454.0799999999999 275.20 L 454.0799999999999 275.20&#xA;                L 530.08 331.20&#xA;                L 605.4399999999999 275.20 L 605.4399999999999 275.20&#xA;                L 680.44 324.20&#xA;                L 756.8 275.20 L 756.8 275.20&#xA;                L 834.80 337.20&#xA;                L 908.16 275.20  V 756.80 H 0 V 275.20 Z" fill="#366e44"/><path d="M 0 344 L 0 344.00&#xA;                L 61.00 378.40&#xA;                L 151.35999999999999 344.00 L 151.35999999999999 344.00&#xA;                L 243.36 378.40&#xA;                L 302.71999999999997 344.00 L 302.71999999999997 344.00&#xA;                L 359.72 402.00&#xA;                L 454.0799999999999 344.00 L 454.0799999999999 344.00&#xA;                L 504.53 405.00&#xA;                L 605.4399999999999 344.00 L 605.4399999999999 344.00&#xA;                L 655.89 400.00&#xA;                L 756.8 344.00 L 756.8 344.00&#xA;                L 807.25 378.40&#xA;                L 908.16 344.00  V 756.80 H 0 V 344.00 Z" fill="#2f603e"/><path d="M 0 412.79999999999995 L 0 412.80&#xA;                L 69.00 469.80&#xA;                L 151.35999999999999 412.80 L 151.35999999999999 412.80&#xA;                L 210.36 474.80&#xA;                L 302.71999999999997 412.80 L 302.71999999999997 412.80&#xA;                L 384.72 447.20&#xA;                L 454.0799999999999 412.80 L 454.0799999999999 412.80&#xA;                L 536.08 474.80&#xA;                L 605.4399999999999 412.80 L 605.4399999999999 412.80&#xA;                L 655.89 479.80&#xA;                L 756.8 412.80 L 756.8 412.80&#xA;                L 807.25 447.20&#xA;                L 908.16 412.80  V 756.80 H 0 V 412.80 Z" fill="#285238"/><path d="M 0 481.59999999999997 L 0 481.60&#xA;                L 50.45 516.00&#xA;                L 151.35999999999999 481.60 L 151.35999999999999 481.60&#xA;                L 201.81 516.00&#xA;                L 302.71999999999997 481.60 L 302.71999999999997 481.60&#xA;                L 392.72 516.00&#xA;                L 454.0799999999999 481.60 L 454.0799999999999 481.60&#xA;                L 504.53 516.00&#xA;                L 605.4399999999999 481.60 L 605.4399999999999 481.60&#xA;                L 655.89 541.60&#xA;                L 756.8 481.60 L 756.8 481.60&#xA;                L 810.80 516.00&#xA;                L 908.16 481.60  V 756.80 H 0 V 481.60 Z" fill="#214432"/><path d="M 0 550.4 L 0 550.40&#xA;                L 103.00 584.80&#xA;                L 151.35999999999999 550.40 L 151.35999999999999 550.40&#xA;                L 201.81 607.40&#xA;                L 302.71999999999997 550.40 L 302.71999999999997 550.40&#xA;                L 353.17 590.40&#xA;                L 454.0799999999999 550.40 L 454.0799999999999 550.40&#xA;                L 542.08 586.40&#xA;                L 605.4399999999999 550.40 L 605.4399999999999 550.40&#xA;                L 655.89 584.80&#xA;                L 756.8 550.40 L 756.8 550.40&#xA;                L 866.80 587.40&#xA;                L 908.16 550.40  V 756.80 H 0 V 550.40 Z" fill="#1a362c"/><path d="M 0 619.1999999999999 L 0 619.20&#xA;                L 58.00 659.20&#xA;                L 151.35999999999999 619.20 L 151.35999999999999 619.20&#xA;                L 238.36 653.60&#xA;                L 302.71999999999997 619.20 L 302.71999999999997 619.20&#xA;                L 398.72 671.20&#xA;                L 454.0799999999999 619.20 L 454.0799999999999 619.20&#xA;                L 557.08 663.20&#xA;                L 605.4399999999999 619.20 L 605.4399999999999 619.20&#xA;                L 715.44 657.20&#xA;                L 756.8 619.20 L 756.8 619.20&#xA;                L 811.80 658.20&#xA;                L 908.16 619.20  V 756.80 H 0 V 619.20 Z" fill="#132826"/><path d="M 0 688 L 0 688.00&#xA;                L 50.45 722.40&#xA;                L 151.35999999999999 688.00 L 151.35999999999999 688.00&#xA;                L 201.81 753.00&#xA;                L 302.71999999999997 688.00 L 302.71999999999997 688.00&#xA;                L 353.17 722.40&#xA;                L 454.0799999999999 688.00 L 454.0799999999999 688.00&#xA;                L 519.08 722.40&#xA;                L 605.4399999999999 688.00 L 605.4399999999999 688.00&#xA;                L 686.44 722.40&#xA;                L 756.8 688.00 L 756.8 688.00&#xA;                L 827.80 722.40&#xA;                L 908.16 688.00  V 756.80 H 0 V 688.00 Z" fill="#0c1a20"/></svg>